<?xml version="1.0" encoding="utf-8"?>
<!-- Generator: Adobe Illustrator 16.0.0, SVG Export Plug-In . SVG Version: 6.00 Build 0)  -->
<!DOCTYPE svg PUBLIC "-//W3C//DTD SVG 1.1//EN" "http://www.w3.org/Graphics/SVG/1.1/DTD/svg11.dtd">
<svg version="1.1" id="Layer_1" xmlns="http://www.w3.org/2000/svg" xmlns:xlink="http://www.w3.org/1999/xlink" x="0px" y="0px"
	 width="152.326px" height="211.628px" viewBox="0 0 152.326 211.628" enable-background="new 0 0 152.326 211.628"
	 xml:space="preserve">
<g>
	<g>
		<g>
			<g>
				<g>
					<g>
						<polygon fill="#FFFFFF" points="28.569,66.38 28.568,82.402 78.182,131.9 82.114,119.408 						"/>
						<polygon fill="#FFFFFF" points="72.458,136.23 28.568,92.607 28.568,108.701 62.984,142.615 						"/>
					</g>
				</g>
			</g>
		</g>
		<g>
			<g>
				<path fill="#FFFFFF" d="M41.212,175.789H28.046v-23.252h4.196v19.449h8.97V175.789z"/>
				<path fill="#FFFFFF" d="M48.521,154.378c0,3.02-4.68,3.051-4.68,0C43.841,151.298,48.521,151.33,48.521,154.378z M48.22,175.82
					h-4.139v-17.455h4.139V175.82z"/>
				<path fill="#FFFFFF" d="M61.809,164.617c0-2.023-0.724-3.02-2.778-3.02c-2.294,0-2.959,1.268-2.959,3.473v3.865
					c0,2.203,0.574,3.473,2.749,3.473c2.174,0,2.958-0.938,2.988-3.051h3.927c0,4.801-2.234,6.734-6.915,6.734
					c-4.682,0-6.916-2.145-6.916-7.037v-3.984c0-4.803,2.355-7.158,7.036-7.158c4.682,0,6.795,1.902,6.795,6.705H61.809z"/>
				<path fill="#FFFFFF" d="M68.606,169.146v-4.287c0-4.682,2.234-6.947,6.915-6.947c4.682,0,6.916,2.145,6.916,6.947v4.287
					c0,4.801-2.234,6.945-6.916,6.945C70.84,176.091,68.606,173.947,68.606,169.146z M78.269,168.935v-3.865
					c0-2.205-0.573-3.473-2.748-3.473c-2.174,0-2.747,1.268-2.747,3.473v3.865c0,2.203,0.573,3.473,2.747,3.473
					C77.696,172.408,78.269,171.138,78.269,168.935z"/>
				<path fill="#FFFFFF" d="M94.7,162.259c-2.688-0.361-4.802,0.695-4.802,3.354v10.207H85.76v-17.848h3.805l0.182,1.873
					c0.726-1.238,2.749-2.326,4.953-1.963V162.259z"/>
				<path fill="#FFFFFF" d="M97.961,157.972h3.594l0.212,1.811c1.116-1.328,2.687-1.932,4.197-1.932
					c2.929-0.029,5.798,1.51,5.798,6.947v10.99h-4.107v-10.961c0-2.295-0.966-3.23-2.687-3.23c-1.601,0-2.87,0.785-2.87,3.078
					v11.113h-4.137V157.972z"/>
				<path fill="#FFFFFF" d="M129.28,170.324c0,3.744-2.234,5.527-6.916,5.527c-4.681,0-6.916-2.145-6.916-6.947v-4.045
					c0-4.471,2.235-6.947,6.916-6.947c4.682,0,6.916,2.145,6.916,6.947v3.533h-9.664v0.451c0,2.869,1.118,3.414,2.809,3.414
					c1.963,0,2.778-0.695,2.778-1.934H129.28z M119.616,164.978h5.646c0-2.234-0.422-3.473-2.778-3.473
					C120.039,161.505,119.616,162.835,119.616,164.978z"/>
			</g>
			<g>
				<path fill="#FFFFFF" d="M29.191,195.474c0.064,1.307,0.569,2.107,2.571,2.107c2.339,0,2.95-1.076,2.95-3.604v-1.582
					c-0.611,1.139-1.686,1.477-3.077,1.477c-2.507,0-3.771-1.119-3.771-4.236V185.8c0-3.33,1.265-4.342,3.961-4.404
					c1.454,0,2.424,0.463,2.973,1.537v-1.369h0.949v12.414c0,3.371-1.329,4.572-3.984,4.572c-2.318,0-3.456-0.928-3.562-3.076
					H29.191z M34.67,186.158c0-2.381-0.632-3.771-2.846-3.771c-2.212,0.041-2.908,0.842-2.908,3.434v3.836
					c0.044,2.529,0.907,3.184,2.825,3.184c2.106,0,2.929-1.117,2.929-3.162V186.158z"/>
				<path fill="#FFFFFF" d="M39.011,181.375l0.062,1.475c0.507-1.012,1.771-1.729,3.288-1.453v0.99
					c-1.876-0.295-3.224,0.906-3.224,2.656l-0.021,8.766h-1.055v-12.434H39.011z"/>
				<path fill="#FFFFFF" d="M44.027,189.341v-3.373c0-3.477,1.242-4.594,3.898-4.594c2.654,0,3.899,1.033,3.899,4.658v3.309
					c0,3.412-1.245,4.615-3.899,4.615C45.269,193.957,44.027,192.923,44.027,189.341z M50.77,189.298v-3.266
					c0-2.656-0.422-3.668-2.845-3.668c-2.275,0-2.845,1.031-2.845,3.625v3.266c0,2.656,0.422,3.73,2.845,3.73
					C50.201,192.986,50.77,191.89,50.77,189.298z"/>
				<path fill="#FFFFFF" d="M61.223,193.808l-0.085-1.35c-0.568,0.906-1.58,1.539-3.099,1.539c-2.886,0-3.772-1.307-3.772-4.488
					v-7.945h1.055v7.945c0,2.74,0.61,3.561,2.823,3.561c2.214,0,2.951-1.537,2.951-2.949v-8.557h1.054v12.244H61.223z"/>
				<path fill="#FFFFFF" d="M72.813,185.779v3.984c0,2.908-1.454,4.109-3.899,4.109c-1.285,0-2.17-0.316-2.845-1.098v4.869h-1.054
					v-16.248h0.928l0.104,1.348c0.59-0.863,1.538-1.412,3.056-1.412C71.696,181.332,72.813,182.554,72.813,185.779z M68.999,182.322
					c-2.15,0.043-2.93,1.201-2.93,3.203v4.068c-0.021,2.34,0.568,3.309,2.845,3.309s2.845-1.117,2.845-3.182v-3.92
					C71.758,183.039,70.852,182.322,68.999,182.322z"/>
				<path fill="#FFFFFF" d="M82.759,190.457c0,2.234-1.138,3.416-3.646,3.416c-2.655,0-3.898-1.225-3.898-4.574v-3.309
					c0-3.373,1.243-4.658,3.898-4.658c2.846,0,3.794,1.412,3.794,4.658v1.834h-6.681v1.391c0,2.508,0.59,3.709,2.887,3.709
					c2.256,0,2.698-1.012,2.698-2.467H82.759z M81.979,186.853v-0.842c0-2.361-0.421-3.795-2.866-3.795
					c-2.275,0-2.887,1.139-2.887,3.73v0.906H81.979z"/>
			</g>
		</g>
	</g>
	<g>
		<path fill="#FFFFFF" d="M89.301,105.47c0,0-6.981,1.982-9.437,1.287c-2.455-0.692-46.195-45.549-46.195-45.549l20.286-28.796
			l28.653,36.346L89.15,95.13L89.301,105.47z"/>
		<path fill="#FFFFFF" d="M125.874,96.66c0.122,0.587-8.11,4.043-13.96,3.373c-5.85-0.669-10.841-2.199-12.856-1.281
			c-3.058,1.386-3.891,2.229-4.644,2.142c-0.756-0.086,1.082,2.228-0.578,3.375c-1.662,1.151-11.213,2.385-11.213,2.385l6.251-5.82
			c0,0-4.688-2.45-6.252-5.496c-1.562-3.049-5.891-6.985-8.924-8.86c-3.04-1.879,5.668-7.768,1.581-15.5
			c-4.083-7.732-5.084-8.995-8.968-8.484c-3.884,0.511-32.641-1.283-32.641-1.283l6.928-28.935l20.445-5.567l7.395,2.67
			l22.494,53.529l1.812,4.221c0,0,1.594-0.582,2.658,0.114c1.07,0.695,4.056,4.672,6.133,4.909
			c2.075,0.238,12.044,3.295,15.447,3.684C122.077,96.417,125.75,96.071,125.874,96.66z"/>
		<path fill="#2B70B8" d="M85.294,87.295c0,0-1.592-0.186-2.744-1.269c-1.154-1.089-1.426-2.669-1.426-2.669s1.592,0.182,2.745,1.27
			C85.021,85.714,85.294,87.295,85.294,87.295z"/>
	</g>
</g>
</svg>
