<?xml version="1.0" encoding="utf-8"?>
<!-- Generator: Adobe Illustrator 16.0.0, SVG Export Plug-In . SVG Version: 6.00 Build 0)  -->
<!DOCTYPE svg PUBLIC "-//W3C//DTD SVG 1.1//EN" "http://www.w3.org/Graphics/SVG/1.1/DTD/svg11.dtd">
<svg version="1.1" id="Layer_1" xmlns="http://www.w3.org/2000/svg" xmlns:xlink="http://www.w3.org/1999/xlink" x="0px" y="0px"
	 width="424px" height="307px" viewBox="-134.337 -46.686 424 307" enable-background="new -134.337 -46.686 424 307"
	 xml:space="preserve">
<g>
	<g>
		<g>
			<g>
				<path fill="#FFFFFF" d="M77.048,53.863L76.29,53.65l-8.643-5.447l-0.508-0.564l-0.221-0.455l-0.133-0.769l8.399-73.371
					l1.383-1.229l0.982,0.002l1.377,1.233l8.183,73.37l-0.131,0.759l-0.217,0.451l-0.48,0.55l-8.181,5.447l-0.755,0.234
					L77.048,53.863z M69.61,46.154l7.55,4.761l7.127-4.745l-7.241-64.942L69.61,46.154z"/>
			</g>
			<g>
				
					<path fill="none" stroke="#FFFFFF" stroke-width="6" stroke-linecap="round" stroke-linejoin="bevel" stroke-miterlimit="10" d="
					M89.044,102.818"/>
			</g>
			<g>
				<path fill="#FFFFFF" d="M59.918,93.914c-0.029,0-0.06-0.001-0.091-0.003c-0.766-0.048-1.347-0.71-1.298-1.474l1.161-18.229
					l0.151-0.55l3.37-6.514l-1.939-16.75L51.149,31.529c-0.362-0.677-0.108-1.519,0.567-1.882c0.677-0.363,1.518-0.109,1.88,0.568
					l10.251,19.099l0.155,0.496l2.019,17.434l-0.146,0.797l-3.433,6.635l-1.141,17.938C61.255,93.349,60.645,93.914,59.918,93.914z"
					/>
			</g>
			<g>
				<path fill="#FFFFFF" d="M93.612,93.914c-0.727,0-1.338-0.565-1.383-1.301l-1.143-17.938l-3.432-6.635l-0.145-0.797l2.018-17.434
					l0.158-0.504l10.268-18.879c0.367-0.674,1.211-0.924,1.885-0.555c0.674,0.366,0.922,1.208,0.557,1.882L92.257,50.397
					l-1.938,16.746l3.369,6.514l0.152,0.55l1.16,18.229c0.049,0.764-0.533,1.425-1.297,1.474
					C93.673,93.913,93.642,93.914,93.612,93.914z"/>
			</g>
			<g>
				<line x1="88.233" y1="115.851" x2="84.564" y2="121.688"/>
				<path fill="#FFFFFF" d="M84.564,123.078c-0.254,0-0.51-0.068-0.738-0.214c-0.65-0.407-0.846-1.265-0.438-1.915l3.669-5.836
					c0.41-0.649,1.266-0.846,1.916-0.437c0.65,0.407,0.844,1.265,0.434,1.914l-3.667,5.837
					C85.477,122.847,85.025,123.078,84.564,123.078z"/>
			</g>
			<g>
				<line x1="65.652" y1="115.851" x2="68.822" y2="121.802"/>
				<path fill="#FFFFFF" d="M68.824,123.191c-0.497,0-0.977-0.267-1.228-0.736l-3.169-5.951c-0.361-0.676-0.104-1.518,0.572-1.876
					c0.676-0.362,1.518-0.105,1.878,0.571l3.17,5.95c0.361,0.676,0.104,1.519-0.572,1.878
					C69.268,123.136,69.045,123.191,68.824,123.191z"/>
			</g>
			<g>
				<path fill="#FFFFFF" d="M107.16,32.455L96.317,21.515l-0.402-0.978V-1.81l0.771-1.245l0.486-0.24l1.838,0.582l10.354,19.088
					l0.168,0.661v14.44L107.16,32.455z M98.692,19.965l8.063,8.137V17.387L98.692,2.525V19.965z"/>
			</g>
			<g>
				<path fill="#FFFFFF" d="M46.43,32.455l-2.376-0.979v-14.44l0.168-0.661L54.578-2.713l1.835-0.582l0.486,0.24l0.775,1.245v22.348
					l-0.404,0.978L46.43,32.455z M46.832,17.387v10.715l8.064-8.137V2.525L46.832,17.387z"/>
			</g>
			<g>
				<circle fill="#FFFFFF" cx="62.619" cy="50.626" r="1.203"/>
			</g>
			<g>
				<circle fill="#FFFFFF" cx="68.036" cy="110.73" r="1.203"/>
			</g>
			<g>
				<circle fill="#FFFFFF" cx="84.887" cy="110.951" r="1.204"/>
			</g>
			<g>
				<path fill="#FFFFFF" d="M67.839,111.771c-0.528,0-1.033-0.303-1.266-0.814l-8.337-18.389c-0.316-0.699-0.007-1.522,0.692-1.838
					c0.697-0.316,1.521-0.007,1.837,0.691l8.338,18.387c0.316,0.699,0.006,1.521-0.693,1.84
					C68.225,111.73,68.031,111.771,67.839,111.771z"/>
			</g>
			<g>
				<path fill="#FFFFFF" d="M85.152,111.771c-0.197,0-0.398-0.043-0.59-0.133c-0.693-0.327-0.992-1.154-0.666-1.848l8.979-19.044
					c0.328-0.695,1.158-0.991,1.85-0.665c0.693,0.326,0.99,1.153,0.662,1.848l-8.977,19.044
					C86.175,111.477,85.672,111.771,85.152,111.771z"/>
			</g>
			<g>
				
					<path fill="none" stroke="#FFFFFF" stroke-width="6" stroke-linecap="round" stroke-linejoin="bevel" stroke-miterlimit="10" d="
					M73.671,111.462"/>
			</g>
			<g>
				<path fill="#FFFFFF" d="M82.791,136.115H71.093L69.94,135.5l-10.725-15.946l-0.166-0.341l-0.339-1.019l-0.068-0.434
					l-0.031-25.235c-0.002-0.766,0.62-1.389,1.387-1.391c0.001,0,0.003,0,0.003,0c0.767,0,1.387,0.622,1.388,1.388l0.029,25.009
					l0.207,0.629l10.21,15.176h10.216l10.21-15.176l0.209-0.629l0.029-25.009l0.047-0.362c0.035-0.131,3.615-13.347,6.963-26.223
					c0.479-1.838,3.986-5.351,5.471-6.775c1.735-7.742,3.552-16.32,3.696-17.833c-0.967-2.285-12.024-13.598-22.39-23.438
					l-0.025-0.024l-3.263-1.798c-0.67-0.369-0.916-1.214-0.545-1.887c0.369-0.672,1.215-0.916,1.887-0.545l3.394,1.871l0.445,0.35
					c5.23,4.964,22.362,21.433,23.233,24.912c0.092,0.371,0.287,1.145-3.812,19.412l-0.4,0.706
					c-2.515,2.373-4.806,5.004-5.005,5.747c-3.137,12.078-6.48,24.452-6.918,26.075l-0.029,25.05l-0.07,0.434l-0.338,1.019
					l-0.168,0.341L83.943,135.5L82.791,136.115z M66.31,18.257c-0.504,0-0.99-0.277-1.237-0.754
					c-0.352-0.684-0.083-1.52,0.599-1.871l3.982-2.048c0.682-0.35,1.52-0.082,1.871,0.601c0.35,0.683,0.081,1.518-0.601,1.87
					l-3.981,2.047C66.741,18.207,66.524,18.257,66.31,18.257z"/>
			</g>
			<g>
				<path fill="#FFFFFF" d="M59.644,93.914c-0.613,0-1.174-0.407-1.342-1.026c-0.033-0.131-3.616-13.359-6.97-26.251
					c-0.196-0.744-2.485-3.376-4.998-5.747l-0.402-0.706c-4.099-18.268-3.904-19.041-3.813-19.412
					c0.87-3.479,18.003-19.948,23.233-24.912l0.199-0.177c0.575-0.506,1.453-0.449,1.959,0.127s0.45,1.454-0.126,1.96l-0.14,0.122
					c-10.359,9.834-21.408,21.14-22.389,23.441C45,42.85,46.817,51.425,48.551,59.164c1.483,1.424,4.993,4.937,5.471,6.775
					c3.349,12.876,6.927,26.091,6.963,26.223c0.2,0.739-0.238,1.504-0.977,1.703C59.885,93.899,59.763,93.914,59.644,93.914z"/>
			</g>
			<g>
				<path fill="none" stroke="#FFFFFF" stroke-width="6" stroke-miterlimit="10" d="M92.821,91.329"/>
			</g>
			<g>
				<path fill="#FFFFFF" d="M78.592,46.051c-0.371,0-0.738-0.146-1.013-0.439c-0.524-0.559-0.497-1.438,0.062-1.962l6.182-5.804
					c0.562-0.524,1.439-0.496,1.965,0.062c0.526,0.559,0.497,1.438-0.062,1.963l-6.182,5.805
					C79.273,45.926,78.934,46.051,78.592,46.051z"/>
			</g>
			<g>
				<path fill="#FFFFFF" d="M78.592,41.338c-0.377,0-0.75-0.152-1.023-0.451c-0.519-0.565-0.479-1.443,0.086-1.962l5.25-4.815
					c0.564-0.517,1.445-0.479,1.963,0.084c0.52,0.567,0.48,1.445-0.084,1.965l-5.252,4.814
					C79.262,41.217,78.928,41.338,78.592,41.338z"/>
			</g>
			<g>
				<path fill="#FFFFFF" d="M78.592,37.12c-0.377,0-0.75-0.151-1.023-0.45c-0.519-0.566-0.479-1.444,0.086-1.963l5.25-4.815
					c0.564-0.518,1.445-0.479,1.963,0.084c0.52,0.567,0.48,1.444-0.084,1.964l-5.252,4.814C79.262,37,78.928,37.12,78.592,37.12z"/>
			</g>
			<g>
				<path fill="#FFFFFF" d="M78.592,32.483c-0.377,0-0.75-0.152-1.023-0.45c-0.519-0.566-0.479-1.444,0.086-1.961l5.25-4.815
					c0.564-0.519,1.445-0.481,1.963,0.085c0.52,0.564,0.48,1.443-0.084,1.962l-5.252,4.814
					C79.262,32.364,78.928,32.483,78.592,32.483z"/>
			</g>
			<g>
				<path fill="#FFFFFF" d="M78.592,32.9c-0.377,0-0.75-0.151-1.023-0.45c-0.519-0.564-0.479-1.444,0.086-1.961l5.25-4.815
					c0.564-0.518,1.445-0.479,1.963,0.087c0.52,0.565,0.48,1.442-0.084,1.961l-5.252,4.813C79.262,32.78,78.928,32.9,78.592,32.9z"
					/>
			</g>
			<g>
				<path fill="#FFFFFF" d="M78.592,28.067c-0.377,0-0.752-0.151-1.023-0.45c-0.519-0.566-0.479-1.444,0.086-1.961l3.912-3.587
					c0.566-0.519,1.445-0.478,1.963,0.087c0.518,0.564,0.48,1.444-0.086,1.961l-3.912,3.585
					C79.262,27.947,78.928,28.067,78.592,28.067z"/>
			</g>
			<g>
				<path fill="#FFFFFF" d="M78.592,23.817c-0.377,0-0.75-0.151-1.023-0.45c-0.519-0.566-0.479-1.443,0.086-1.962l3.84-3.522
					c0.566-0.517,1.443-0.479,1.963,0.085c0.518,0.564,0.48,1.444-0.084,1.964l-3.842,3.52
					C79.262,23.697,78.928,23.817,78.592,23.817z"/>
			</g>
			<g>
				<path fill="#FFFFFF" d="M78.592,19.291c-0.367,0-0.735-0.146-1.009-0.435c-0.526-0.556-0.505-1.436,0.054-1.963l3.062-2.903
					c0.559-0.528,1.436-0.504,1.965,0.053c0.527,0.557,0.504,1.436-0.053,1.961l-3.066,2.905
					C79.277,19.164,78.936,19.291,78.592,19.291z"/>
			</g>
			<g>
				<path fill="#FFFFFF" d="M78.592,15.07c-0.367,0-0.735-0.145-1.009-0.433c-0.526-0.556-0.505-1.436,0.054-1.964l3.062-2.903
					c0.559-0.528,1.438-0.503,1.965,0.052c0.527,0.559,0.504,1.437-0.053,1.963l-3.064,2.904
					C79.279,14.946,78.936,15.07,78.592,15.07z"/>
			</g>
			<g>
				<path fill="#FFFFFF" d="M78.592,10.853c-0.367,0-0.735-0.145-1.009-0.433c-0.526-0.556-0.505-1.436,0.054-1.964l3.062-2.903
					c0.559-0.528,1.438-0.504,1.965,0.052c0.527,0.557,0.504,1.435-0.053,1.963l-3.064,2.904
					C79.279,10.728,78.936,10.853,78.592,10.853z"/>
			</g>
			<g>
				<path fill="#FFFFFF" d="M78.592,6.388c-0.371,0-0.738-0.147-1.015-0.438c-0.522-0.56-0.495-1.439,0.063-1.962l2.572-2.413
					c0.561-0.524,1.439-0.496,1.965,0.063c0.523,0.559,0.494,1.439-0.064,1.963l-2.57,2.412C79.273,6.264,78.934,6.388,78.592,6.388
					z"/>
			</g>
			<g>
				<path fill="#FFFFFF" d="M78.1,2.285c-0.371,0-0.741-0.148-1.015-0.44c-0.524-0.559-0.497-1.438,0.063-1.963l2.572-2.409
					c0.561-0.526,1.439-0.497,1.963,0.063c0.527,0.56,0.496,1.439-0.062,1.962l-2.572,2.411C78.781,2.159,78.439,2.285,78.1,2.285z"
					/>
			</g>
			<g>
				<path fill="#FFFFFF" d="M78.1-2.201c-0.371,0-0.739-0.149-1.015-0.438c-0.524-0.56-0.497-1.439,0.063-1.964l1.291-1.21
					C79-6.337,79.879-6.309,80.402-5.75c0.527,0.56,0.496,1.439-0.064,1.964l-1.287,1.21C78.781-2.326,78.441-2.201,78.1-2.201z"/>
			</g>
			<g>
				
					<path fill="none" stroke="#FFFFFF" stroke-width="6" stroke-linecap="round" stroke-linejoin="bevel" stroke-miterlimit="10" d="
					M81.438,14.459"/>
			</g>
		</g>
		<g>
			<path fill="#FFFFFF" d="M76.052,176.972c-37.437,0-67.896-30.457-67.896-67.895c0-19.838,8.645-38.63,23.718-51.558
				c0.583-0.499,1.459-0.431,1.959,0.15c0.499,0.583,0.433,1.459-0.151,1.959c-14.456,12.398-22.748,30.423-22.748,49.449
				c0,35.906,29.214,65.117,65.119,65.117c35.913,0,65.124-29.211,65.124-65.117c0-18.473-7.893-36.146-21.654-48.49
				c-0.572-0.513-0.619-1.39-0.107-1.962c0.514-0.57,1.391-0.62,1.963-0.106c14.348,12.87,22.576,31.299,22.576,50.558
				C143.953,146.515,113.494,176.972,76.052,176.972z"/>
		</g>
	</g>
	<g>
		<path fill="#FFFFFF" d="M-103.988,197.562v27.166c0,1.996,0.816,2.721,2.313,2.721c0.635,0,1.043-0.091,1.36-0.227v4.489
			c-0.861,0.362-1.904,0.59-3.22,0.59c-3.854,0-6.031-2.269-6.031-6.122v-28.617H-103.988z"/>
		<path fill="#FFFFFF" d="M-92.697,196.292c2.041,0,3.493,1.496,3.493,3.537c0,1.859-1.452,3.311-3.493,3.311
			c-1.859,0-3.355-1.451-3.355-3.311C-96.052,197.789-94.556,196.292-92.697,196.292z M-95.327,206.677h5.578v25.261h-5.578V206.677
			z"/>
		<path fill="#FFFFFF" d="M-72.606,206.224c4.037,0,6.758,1.451,8.163,3.266l-3.764,3.674c-0.589-0.771-1.95-2.268-4.49-2.268
			c-3.356,0-5.533,2.131-5.533,8.208c0,6.032,1.95,8.616,5.487,8.616c2.312,0,3.764-1.133,4.535-2.268l3.538,3.402
			c-1.271,1.633-3.583,3.537-8.571,3.537c-6.576,0-10.703-3.674-10.703-12.789C-83.944,210.533-79.228,206.224-72.606,206.224z"/>
		<path fill="#FFFFFF" d="M-61.948,219.421c0-7.801,3.129-13.197,11.247-13.197c8.344,0,11.021,5.17,11.021,12.971
			s-3.175,13.197-11.248,13.197C-59.227,232.392-61.948,227.176-61.948,219.421z M-50.701,227.902c3.991,0,5.306-2.766,5.306-8.436
			c0-5.805-1.587-8.752-5.578-8.752c-3.719,0-5.216,2.721-5.216,8.436C-56.189,224.91-54.647,227.902-50.701,227.902z"/>
		<path fill="#FFFFFF" d="M-19.908,211.984c-0.907-0.182-1.95-0.271-2.857-0.271c-2.268,0-4.671,0.861-6.032,2.494v17.731h-5.533
			v-25.261h4.309l1.179,3.357h0.182c1.043-2.223,3.311-3.855,6.485-3.855c0.862,0,1.723,0.091,2.268,0.227V211.984z"/>
		<path fill="#FFFFFF" d="M4.172,231.938h-5.623v-16.235c0-3.084-1.451-4.807-4.172-4.807c-2.404,0-4.309,1.496-5.125,3.537v17.505
			h-5.578v-25.261h4.308l1.134,2.496h0.182c1.224-1.498,3.809-3.085,6.938-3.085c4.988,0,7.891,2.722,7.936,8.391V231.938z"/>
		<path fill="#FFFFFF" d="M29.84,229.761c-1.859,1.451-4.399,2.631-8.752,2.631c-7.709,0-11.7-4.217-11.7-13.151
			c0-8.571,4.761-13.017,11.428-13.017c6.258,0,9.796,3.991,9.796,10.113c0,1.271-0.046,2.631-0.272,4.445H14.875
			c0.182,4.807,2.268,7.074,6.848,7.074c2.675,0,4.671-1.18,5.669-2.132L29.84,229.761z M14.966,216.882h10.339v-0.998
			c0-3.447-1.496-5.307-4.716-5.307C17.46,210.578,15.147,212.755,14.966,216.882z"/>
		<path fill="#FFFFFF" d="M53.696,232.482c0,6.35-3.765,9.479-9.751,9.479c-4.218,0-6.622-1.587-7.528-2.357l1.542-2.268
			c1.225,1.088,3.039,2.176,6.531,2.176c4.716,0,6.622-2.402,6.622-7.029v-2.539h-0.182c-0.726,0.635-2.903,2.086-6.304,2.086
			c-4.988,0-9.206-3.311-9.206-11.474c0-8.071,3.809-13.242,11.882-13.242c2.767,0,5.08,0.544,6.395,1.224V232.482z M46.711,209.762
			c-5.079,0-8.571,3.31-8.571,10.294c0,7.574,3.674,9.569,7.256,9.569c2.086,0,4.399-0.997,5.669-2.722v-16.371
			C50.022,210.08,48.434,209.762,46.711,209.762z"/>
		<path fill="#FFFFFF" d="M73.016,210.215c-0.907-0.272-1.814-0.409-2.722-0.409c-2.494,0-4.989,0.999-6.078,3.493v18.639h-2.631
			v-24.444h1.951l0.589,2.494h0.181c1.134-1.587,3.402-2.856,6.124-2.856c1.224,0,2.041,0.136,2.585,0.272V210.215z"/>
		<path fill="#FFFFFF" d="M75.917,219.785c0-7.574,2.768-12.744,9.978-12.744c7.165,0,9.705,5.034,9.705,12.471
			c0,7.574-2.767,12.79-9.977,12.79C78.456,232.301,75.917,227.222,75.917,219.785z M85.895,229.853
			c5.079,0,6.984-3.311,6.984-10.068c0-6.939-2.177-10.295-7.256-10.295c-5.08,0-6.984,3.266-6.984,10.021
			C78.639,226.451,80.815,229.853,85.895,229.853z"/>
		<path fill="#FFFFFF" d="M102.039,207.494h2.631v16.055c0,4.354,1.858,6.439,5.895,6.439c3.628,0,6.667-1.949,6.667-6.712v-15.782
			h2.631v24.444h-1.951l-0.589-2.63h-0.181c-0.5,0.725-2.767,3.129-7.121,3.129c-4.943,0-7.846-2.63-7.981-8.117V207.494z"/>
		<path fill="#FFFFFF" d="M134.238,231.938c-1.179,0-2.676-0.136-3.855-0.362v9.16h-2.631v-33.242h1.997l0.59,2.586h0.181
			c1.225-1.679,3.355-3.039,6.485-3.039c5.624,0,9.069,3.674,9.069,11.7C146.074,227.176,141.585,231.938,134.238,231.938z
			 M134.238,229.49c6.168,0,9.115-3.629,9.115-10.386c0-7.438-3.355-9.66-6.803-9.66c-3.4,0-5.307,2.177-6.168,3.855v15.69
			C131.426,229.263,133.15,229.49,134.238,229.49z"/>
		<path fill="#FFFFFF" d="M169.158,230.169c-1.543,1.089-4.173,2.041-7.347,2.041c-6.758,0-10.478-3.355-10.478-12.607
			c0-9.115,5.082-12.472,10.068-12.472c5.669,0,8.617,3.719,8.617,9.479c0,1.179-0.09,2.722-0.227,4.173h-15.782
			c0.362,6.621,3.085,8.979,8.163,8.979c2.403,0,4.671-0.906,5.76-1.768L169.158,230.169z M154.011,218.333h13.288
			c0.045-0.636,0.045-1.27,0.045-1.633c0-4.535-1.949-7.12-6.258-7.12C157.82,209.581,154.373,211.576,154.011,218.333z"/>
		<path fill="#FFFFFF" d="M177.549,227.131c1.36,0,2.403,1.044,2.403,2.403c0,1.27-1.043,2.312-2.403,2.312
			c-1.271,0-2.314-1.043-2.314-2.312C175.234,228.175,176.277,227.131,177.549,227.131z"/>
		<path fill="#FFFFFF" d="M194.055,207.131c3.901,0,5.896,1.587,6.575,2.269l-1.768,2.131c-1.179-1.134-2.675-1.95-5.033-1.95
			c-4.263,0-7.165,2.856-7.165,10.112c0,7.438,2.812,10.16,7.165,10.16c2.312,0,3.854-0.682,4.942-1.814l1.588,2.041
			c-0.861,0.906-2.857,2.222-6.758,2.222c-5.76,0-9.659-3.401-9.659-12.199C183.942,211.032,188.296,207.131,194.055,207.131z"/>
		<path fill="#FFFFFF" d="M204.939,219.785c0-7.574,2.768-12.744,9.978-12.744c7.165,0,9.704,5.034,9.704,12.471
			c0,7.574-2.767,12.79-9.977,12.79C207.479,232.301,204.939,227.222,204.939,219.785z M214.917,229.853
			c5.079,0,6.983-3.311,6.983-10.068c0-6.939-2.176-10.295-7.256-10.295c-5.078,0-6.983,3.266-6.983,10.021
			C207.661,226.451,209.838,229.853,214.917,229.853z"/>
		<path fill="#FFFFFF" d="M254.145,207.041c4.807,0,7.529,2.812,7.529,8.072v16.825h-2.631v-16.235c0-4.036-1.86-6.213-5.262-6.213
			c-3.4,0-5.441,2.403-6.03,4.398v18.05h-2.631v-16.009c0-4.127-1.858-6.439-5.261-6.439c-3.447,0-5.533,2.494-6.032,4.762v17.687
			h-2.63v-24.444h1.95l0.591,2.722h0.18c0.454-0.771,2.132-3.175,6.305-3.175c3.629,0,5.669,1.678,6.575,4.037h0.183
			C247.841,208.992,250.199,207.041,254.145,207.041z"/>
	</g>
</g>
</svg>
